# xmcd
#
# Track frame offsets:
#	150
#	13415
#	25217
#	36621
#	51436
#	67163
#	77496
#	89598
#	104560
#	124167
#	140139
#	155536
#	168310
#	182188
#	201029
#	214261
#
# Disc length: 3057 seconds
#
# Revision: 1
# Processed by: cddbd v1.5.2PL0 Copyright (c) Steve Scherf et al.
# Submitted via: audiograbber 1.83.01
#
DISCID=f80bef10
DTITLE=Kenny Rogers - Kenny Rogers CD 1
DYEAR=2009
DGENRE=Country
TTITLE0=Ruby Don't Take Your Love To Town
TTITLE1=Me And Bobby McGhee
TTITLE2=Poem For My Little Lady
TTITLE3=For The Good Times
TTITLE4=Good Lady Of Toronto
TTITLE5=Where Does Rosie Go
TTITLE6=What Am I Gonna Do
TTITLE7=All God's Lonely Children
TTITLE8=Lay It Down
TTITLE9=Tulsa Turnaround
TTITLE10=Tell It All Brother
TTITLE11=Love Woman
TTITLE12=I'm Going To Sing You A Sad Song Suzie
TTITLE13=The King Of Oak Street
TTITLE14=Shine On Ruby Mountain
TTITLE15=Heed The Call
EXTD=
EXTT0=
EXTT1=
EXTT2=
EXTT3=
EXTT4=
EXTT5=
EXTT6=
EXTT7=
EXTT8=
EXTT9=
EXTT10=
EXTT11=
EXTT12=
EXTT13=
EXTT14=
EXTT15=
PLAYORDER=
